<svg fill="none" height="34" viewBox="0 0 27 34" width="27" xmlns="http://www.w3.org/2000/svg"><path d="m14.9452 24.2906-1.41 1.6216-1.4099-1.6216c-.2115-.2495-.4582-.5406-.7049-.8732-.5993 1.1226-1.2337 2.079-1.79768 2.8274.07049.1663.14099.3742.17624.5405.07049.1664.10574.2911.17624.4574.0352.1248.1057.2495.141.3327 0 0 .1057.291.1762.4158v.1247s.1763.2495.2468.3742c.1762.3327.3524.6653.5287.9979.1057.1664.1762.3327.282.4574.1762.2911.3172.5405.4934.79.0705.0832.1058.1663.1763.2495.5992.8732 1.1279 1.5384 1.5509 2.0374.3525-.4158.8459-.9979 1.3394-1.7048.0705-.0831.141-.1663.1763-.291.3877-.5821.7754-1.2058 1.1631-1.9127.0705-.1247.1058-.2079.1763-.3326.1762-.3742.3877-.7485.564-1.1643.0705-.1247.1057-.2494.1762-.4158.0705-.1663.1057-.291.1762-.4573.0705-.1664.1058-.3327.1763-.499-.564-.79-1.1985-1.7463-1.7977-2.869-.282.3327-.5287.6237-.7402.8732zm3.2075-4.7401c-.1409.291-.2819.5405-.4229.79-.0705.1247-.141.2495-.2115.3742-.141.2495-.3173.5405-.4582.7484.3524.7485.7402 1.4138 1.1279 1.9959.705 1.081 1.3747 1.9126 1.8329 2.4948 1.0927-1.289 3.2781-4.1164 4.2298-7.7754-1.4805-.2079-3.2076-.6653-4.8643-1.5385-.3525 1.0395-.7754 1.9958-1.2337 2.9106zm-8.0718 1.9542-.0705-.1247c-.1762-.2495-.31719-.5405-.49343-.8316-.03525-.0832-.10574-.1663-.14099-.2495-.0705-.1663-.17624-.291-.24674-.4574-.07049-.1247-.10574-.2494-.17624-.3326-.45822-.8732-.8812-1.8295-1.19843-2.869-1.65666.8732-3.38381 1.3306-4.86423 1.5385.98694 3.659 3.13708 6.4864 4.22976 7.7754.49348-.5406 1.16319-1.4138 1.86815-2.4948v.1663s0-.1247 0-.1663c.38773-.5821.77546-1.2474 1.12795-1.9543zm13.5705-17.46345c-2.2911-2.82742-5.6749-4.15797-10.1162-4.03323106-4.40596-.12473894-7.82502 1.20581106-10.11614 3.99165106-3.137075 3.86691-3.41906 9.60493-3.41906 11.97493.599217 0 1.44517 0 2.39687-.1663v.2911c0-.0832 0-.2079 0-.2911 1.40992-.2079 3.06658-.6237 4.68799-1.4969v-.0831c0-1.0811.07049-2.1622.28198-3.2432.35248-1.66323.98695-3.24326 1.97389-4.65697.17624-.29105.38773-.58211.59922-.87317-.17624.37422-.28199.74843-.42298 1.12265-.49347 1.53845-.74021 3.0769-.74021 4.65689 0 .6237.0705 1.2474.141 1.8295.14099.8732.31723 1.7048.56396 2.4532.0705.2495.17624.5406.28199.7901.38769.9979.81069 1.9126 1.26889 2.7026.4583.8316.9517 1.5801 1.3747 2.1622s.7755 1.0395 1.0927 1.3721c.3172-.3326.6697-.79 1.0927-1.3721.4582-.6237.9164-1.3306 1.3747-2.1622.4582-.8315.9164-1.7463 1.2689-2.7442.1057-.2495.2115-.5406.282-.8316.2467-.7484.423-1.58.5639-2.4116.1058-.6237.141-1.2474.141-1.8711 0-1.53847-.2114-3.1185-.7402-4.61537-.1057-.37421-.2467-.74843-.4229-1.12265.2114.24948.4229.54054.5992.83159.9517 1.45529 1.6214 2.99374 1.9739 4.69853.2467 1.1226.3172 2.2453.2819 3.3264 1.6215.8731 3.2781 1.2889 4.688 1.4968.987.1248 1.7977.1663 2.3969.1663 0-2.37-.282-8.108-3.4191-11.97491z" fill="#fff"/></svg>