<svg fill="none" height="48" viewBox="0 0 48 48" width="48" xmlns="http://www.w3.org/2000/svg" xmlns:xlink="http://www.w3.org/1999/xlink"><clipPath id="a"><path d="m0 0h48v48h-48z"/></clipPath><g clip-path="url(#a)" fill="#fff"><path d="m24 4.32466c6.4082 0 7.1671.02466 9.6979.13972 2.3398.10685 3.611.49795 4.4569.82672 1.1199.43561 1.9199.95479 2.7589 1.7952.8404.83973 1.3596 1.63904 1.7952 2.75959.3288.84591.7192 2.11641.8267 4.45681.1151 2.5309.1397 3.2898.1397 9.698s-.0246 7.1678-.1397 9.6979c-.1075 2.3404-.4979 3.611-.8267 4.4562-.4356 1.1205-.9548 1.9199-1.7952 2.7596-.8397.8397-1.639 1.3596-2.7589 1.7952-.8459.3288-2.1171.7199-4.4569.8267-2.5308.1151-3.289.1397-9.6979.1397s-7.1678-.0246-9.6979-.1397c-2.3398-.1068-3.611-.4979-4.45621-.8267-1.12055-.4356-1.91986-.9555-2.76027-1.7952-.83973-.8397-1.35959-1.6391-1.79521-2.7596-.32808-.8459-.71918-2.1164-.82671-4.4562-.11507-2.5301-.13973-3.289-.13973-9.6979s.02466-7.1671.13973-9.698c.10753-2.3404.49794-3.6109.82671-4.45681.43562-1.11986.95548-1.91918 1.79521-2.75959.84041-.84041 1.63972-1.35959 2.76027-1.7952.84521-.32877 2.11641-.71987 4.45621-.82672 2.5308-.11575 3.2904-.13972 9.6979-.13972zm0-4.32466c-6.5185 0-7.3356.0280822-9.8952.144521-2.5548.116438-4.29864.522602-5.82535 1.115749-1.57877.6137-2.91712 1.43357-4.25137 2.7685-1.33424 1.33424-2.15479 2.67328-2.76781 4.25068-.593832 1.52671-.999311 3.27125-1.115749 5.82535-.1171237 2.5603-.144521 3.3774-.144521 9.8952s.0273973 7.3356.144521 9.8952c.115753 2.5548.521917 4.2986 1.115749 5.8253.61302 1.5781 1.43357 2.9172 2.76781 4.2507 1.33425 1.3343 2.6726 2.1548 4.25137 2.7685 1.52671.5932 3.27125.9987 5.82535 1.1158 2.5603.1164 3.3774.1438 9.8952.1438s7.3349-.0274 9.8952-.1438c2.5548-.1165 4.2993-.5226 5.826-1.1158 1.5781-.6137 2.9172-1.4342 4.2514-2.7685 1.3343-1.3342 2.1548-2.6733 2.7685-4.2507.5931-1.5267.9993-3.2712 1.1157-5.8253.1165-2.5603.1439-3.3774.1439-9.8952s-.0274-7.3349-.1439-9.8952c-.1164-2.5548-.5226-4.29864-1.1157-5.82535-.6137-1.57808-1.4342-2.91712-2.7685-4.25068-1.3342-1.33425-2.6726-2.1548-4.2514-2.7685-1.5267-.593147-3.2712-.999311-5.826-1.115749-2.5603-.1164388-3.3774-.144521-9.8952-.144521"/><path d="m39.6918 11.1883c0 1.6986-1.4706 3.0541-3.2076 2.8623-1.3171-.1452-2.3883-1.2164-2.5342-2.5335-.1925-1.73771 1.163-3.20826 2.8623-3.20826 1.5904 0 2.8802 1.28972 2.8802 2.88016"/><path d="m23.9986 12.011c-6.6198 0-11.9876 5.3678-11.9876 11.9877 0 6.6198 5.3678 11.9904 11.9876 11.9904 6.6199 0 11.9904-5.3678 11.9904-11.9904s-5.3678-11.9877-11.9904-11.9877zm0 19.987c-4.4171 0-7.9993-3.5795-7.9993-7.9993 0-4.4199 3.5822-7.9994 7.9993-7.9994 4.4172 0 7.9993 3.5822 7.9993 7.9994 0 4.4171-3.5794 7.9993-7.9993 7.9993z"/></g></svg>