<svg fill="none" height="22" viewBox="0 0 73 22" width="73" xmlns="http://www.w3.org/2000/svg"><g fill="#dd2833"><path d="m2.80621.00170898v14.52309102c0 1.8318-.76493 2.0932-1.65793 2.0932h-1.14828v4.3176s1.0202.2624 2.55182.2624c4.46326 0 5.35627-1.7016 5.35627-7.196v-13.99933399h-5.10188z"/><path d="m21.2409 7.32716c-.9956-6.80338-1.25-7.32716-1.25-7.32716h-7.244s-.2544.52378-1.25 7.32716l-1.96412 13.60674h5.05012l.2658-2.7127-1.0123-.6952h5.0659l-1.0123.6933.264 2.7137h5.0519zm-5.9185 5.75674.7912-8.11136h.5106l.7649 8.11136z"/><path d="m34.3166 10.4602-1.8167-.3735 1.8851-.43086c.6018-.46728 1.429-1.56559 1.429-4.06575 0-3.1398-1.2755-5.4953634-5.4835-5.4953634h-5.994v20.9338734h6.3756c4.0817 0 5.3563-1.8318 5.3563-5.4953v-1.1003c0-2.592-1.0719-3.5965-1.7518-3.9728zm-4.2422-6.17907c.5105 0 .7658.33992.7658.78423v1.83178c0 1.0466-.1281 1.44016-1.0202 1.44016h-.3833v-2.93297l-1.3676-1.1232zm.8939 11.90617c0 .4443-.2562.7842-.7658.7842h-.765v-3.7153l-1.3675-1.1232h1.3675v-.0029h.5106c.893 0 1.0202.2615 1.0202 1.4392z"/><path d="m48.3389 7.32716c-.9957-6.80338-1.25-7.32716-1.25-7.32716h-7.2441s-.2561.52378-1.25 7.32716l-1.9641 13.60774h5.0501l.2667-2.7396-.9746-.6693h5.0668l-1.0491.7191.2614 2.6888h5.0501zm-5.9177 5.75774.7913-8.11236h.5105l.7649 8.11236z"/><path d="m60.6277.00097656h-11.7327v4.70921344h5.0273l-1.7124.87808v15.34563h5.1019v-15.34946l-.0061.00861-1.7211-.88286h5.0422v-4.70921344z"/><path d="m67.1331.00097656c-4.2088 0-5.8668 2.48579344-5.8668 6.54196344v8.63516c0 4.0552 1.658 6.542 5.8668 6.542 4.2089 0 5.8668-2.4868 5.8668-6.542v-8.63516c0-4.05617-1.6588-6.54196344-5.8668-6.54196344zm.765 16.35492344c0 .5238-.1781 1.0456-.765 1.0456-.5868 0-.7649-.5218-.7649-1.0456v-10.98978c0-.0383.0009-.07756.0035-.11587l-1.1333-.93169h1.8614v.00096c.0105-.00096.0228-.00096.0333-.00096.5869 0 .765.52378.765 1.0466z"/></g></svg>