<svg fill="none" height="48" viewBox="0 0 48 48" width="48" xmlns="http://www.w3.org/2000/svg"><path clip-rule="evenodd" d="m41.0066 6.97557c-4.5124-4.4959-10.5131-6.9729199-16.9064-6.97557-13.1732 0-23.894662 10.6693-23.899821 23.7835-.001831 4.1922 1.098751 8.2839 3.190251 11.8912l-3.39063 12.3253 12.6696-3.3077c3.4908 1.895 7.421 2.8938 11.4211 2.8951h.0098c13.1718 0 23.8942-10.6705 23.8995-23.785.0025-6.3554-2.4811-12.3313-6.9934-16.827zm-16.9061 36.59493h-.0081c-3.5644-.0013-7.0605-.9544-10.1105-2.7556l-.7253-.4285-7.51835 1.9628 2.00678-7.2953-.47232-.748c-1.98847-3.1475-3.03863-6.7854-3.03713-10.5209.00433-10.9 8.91552-19.76794 19.87272-19.76794 5.3058.00182 10.2933 2.06095 14.0439 5.79776 3.7504 3.73668 5.8146 8.70378 5.8126 13.98608-.0045 10.9007-8.9155 19.7695-19.8643 19.7695zm10.896-14.8063c-.5971-.2974-3.5331-1.735-4.0804-1.9336-.5474-.1982-.9455-.2973-1.3436.2975-.3981.595-1.5425 1.9338-1.891 2.3305-.3483.3965-.6966.4463-1.2936.1487-.5971-.2975-2.5214-.9251-4.8023-2.9499-1.7752-1.576-2.9737-3.5222-3.322-4.1171-.3484-.595-.0371-.9166.2618-1.2129.2686-.2664.5971-.6942.8957-1.0412s.3981-.5951.5971-.9915c.1991-.3966.0995-.7436-.0497-1.0411-.1493-.2975-1.3436-3.2229-1.8412-4.4129-.4848-1.1588-.9771-1.0018-1.3436-1.0202-.348-.0172-.7464-.0208-1.1445-.0208s-1.045.1487-1.5924.7437c-.5474.5951-2.09 2.0329-2.09 4.958 0 2.925 2.1398 5.7514 2.4383 6.1479.2986.3968 4.211 6.3995 10.2014 8.9739 1.4248.6123 2.5372.978 3.4042 1.2518 1.4307.4525 2.7325.3886 3.7615.2356 1.1473-.1706 3.5331-1.4376 4.0308-2.8259.4975-1.3885.4975-2.5784.3482-2.8261-.1493-.248-.5474-.3967-1.1445-.6942z" fill="#fff" fill-rule="evenodd"/></svg>